<?xml version="1.0" encoding="utf-8"?>
<!-- Svg Vector Icons : http://www.onlinewebfonts.com/icon -->
<!DOCTYPE svg PUBLIC "-//W3C//DTD SVG 1.1//EN" "http://www.w3.org/Graphics/SVG/1.1/DTD/svg11.dtd">
<svg version="1.1" xmlns="http://www.w3.org/2000/svg" xmlns:xlink="http://www.w3.org/1999/xlink" x="0px" y="0px" viewBox="0 0 256 256" enable-background="new 0 0 256 256" xml:space="preserve">
<metadata> Svg Vector Icons : http://www.onlinewebfonts.com/icon </metadata>
<g><g><path fill="#000000" d="M125.4,246c-17.1,0-34.9,0-45.5-0.7c-17.8-0.7-31.6-3.9-46.8-16.4c-11.9-9.8-19.8-26.9-21.7-49.2C10,165.3,10,151.6,10,135.8v-0.7c0,0,0,0,0-0.7v-19l0,0c0-13.8,0-26.9,1.3-39.3c2.6-22.3,9.9-38.7,21.7-49.2c15.2-12.4,29-15.7,46.8-16.4C90.4,10,105.6,10,124.7,10h13.2c16.5,0,29,0.7,38.2,0.7c17.8,0.6,31.6,3.9,46.8,16.4c11.9,9.8,19.8,26.9,21.7,49.2c1.3,13.8,1.3,28.2,1.3,43.3v9.2v6.5c0,15.1,0,29.5-1.3,43.3c-2.6,22.3-9.9,38.7-21.7,49.1c-15.2,12.5-29,15.7-46.8,16.4C168.9,245.3,147.1,246,125.4,246z M23.2,135.2L23.2,135.2v1.3c0,15.1,0,28.8,1.3,42c1.3,13.1,5.3,30.8,17.1,40c12.5,10.5,23.7,13.1,39.5,13.8c22.4,1.3,81.1,0.7,94.9,0c15.8-0.7,27-3.3,39.5-13.8c11.9-9.8,15.8-27.5,17.1-40c1.3-13.1,1.3-26.9,1.3-42v-9.2v-6.6c0-15.1,0-28.8-1.3-42c-1.3-13.1-5.3-30.8-17.1-40c-12.5-10.5-23.7-13.1-39.5-13.8c-8.6-0.6-21.7-0.6-37.6-0.6h-13.2c-19.1,0-34.3,0-44.2,0.6c-15.8,0.7-27,3.3-39.5,13.8c-11.9,9.8-15.8,27.5-17.1,40c-1.3,11.8-1.3,24.3-1.3,38l0,0L23.2,135.2L23.2,135.2z"/><path fill="#000000" d="M47.6,101.8l48.8-12.5c2-0.6,3.3,0.7,3.9,2.6l0.6,1.3c0.7,2-0.6,3.3-2.6,3.9l-48.8,12.5c-2,0.6-3.3-0.7-3.9-2.6l-0.7-1.3C44.9,103.7,45.6,101.8,47.6,101.8z"/><path fill="#000000" d="M48.9,78.8L98.3,88c2,0,3.3,2,2.6,3.9v1.3c0,2-2,3.3-3.9,2.6l-49.4-9.2c-2,0-3.3-2-2.6-3.9v-1.3C45.6,80.1,46.9,78.8,48.9,78.8z"/><path fill="#000000" d="M159,88.7l49.4-9.8c2-0.7,3.3,0.6,4,2.6l0.7,1.3c0.7,2-0.7,3.3-2.7,3.9l-49.4,9.8c-2,0.6-3.3-0.7-3.9-2.6l-0.7-1.3C155.7,90.6,157,89.3,159,88.7z"/><path fill="#000000" d="M209.7,101.8l-48.8-12.5c-2-0.6-3.3,0.7-3.9,2.6l-0.7,1.3c-0.7,2,0.7,3.9,2.6,3.9l48.8,12.5c2,0.6,3.3-0.7,3.9-2.6l0.7-1.3C212.4,103.7,211.7,101.8,209.7,101.8z"/><path fill="#000000" d="M74.6,215.8h8.6v13.1h-8.6V215.8z"/><path fill="#000000" d="M74.6,196.1h8.6v13.1h-8.6V196.1z"/><path fill="#000000" d="M74.6,100.5h8.6v89.1h-8.6V100.5L74.6,100.5z"/><path fill="#000000" d="M176.1,215.8h8.6v13.1h-8.6V215.8z"/><path fill="#000000" d="M176.1,196.1h8.6v13.1h-8.6V196.1z"/><path fill="#000000" d="M176.1,100.5h8.6v89.1h-8.6V100.5L176.1,100.5z"/><path fill="#000000" d="M161.6,183.7c-1.3,0-2-0.7-3.3-1.3c-31-25.6-58.7-2.6-60-2c-2,2-5.3,1.3-7.2-0.7c-2-2-1.3-5.3,0.6-7.2c0.7,0,35.6-29.5,73.2,1.3c2,2,2.6,4.6,0.7,7.2C164.9,183,163.6,183.7,161.6,183.7z"/></g></g>
</svg>