<?xml version="1.0" encoding="utf-8"?>
<!-- Generator: Adobe Illustrator 24.1.1, SVG Export Plug-In . SVG Version: 6.00 Build 0)  -->
<svg version="1.1" id="Layer_1" xmlns="http://www.w3.org/2000/svg" xmlns:xlink="http://www.w3.org/1999/xlink" x="0px" y="0px"
	 viewBox="0 0 512 512" style="enable-background:new 0 0 512 512;" xml:space="preserve">
<style type="text/css">
	.st0{fill-rule:evenodd;clip-rule:evenodd;fill:#FE7A15;}
</style>
<g>
	<path class="st0" d="M243.3,2.8c8-3.7,17.3-3.7,25.3,0L499,110.4c6.9,3.2,6.9,13.1-0.1,16.2L266.8,233.5c-6.9,3.2-14.8,3.2-21.6,0
		L13,126.7c-6.9-3.2-7-13-0.1-16.2L243.3,2.8z M499,248.2c6.9,3.2,6.9,13.1-0.1,16.3L266.8,371.3c-6.9,3.2-14.8,3.2-21.6,0L13,264.4
		c-6.9-3.2-7-13-0.1-16.3L60.6,226c6.9-3.2,14.9-3.2,21.8-0.1l162.8,74.9c6.9,3.2,14.8,3.2,21.6,0l162.8-74.9
		c6.9-3.2,14.9-3.2,21.8,0.1L499,248.2z M499,386.6c6.9,3.2,6.9,13.1-0.1,16.3L266.8,509.6c-6.9,3.2-14.8,3.2-21.6,0L13,402.8
		c-6.9-3.2-7-13-0.1-16.3l47.6-22.2c6.9-3.2,14.9-3.2,21.8-0.1l162.8,74.9c6.9,3.2,14.8,3.2,21.6,0l162.8-74.9
		c6.9-3.2,14.9-3.2,21.8,0.1L499,386.6z"/>
</g>
</svg>
